<mxfile host="app.diagrams.net" modified="2023-09-26T08:54:11.322Z" agent="Mozilla/5.0 (Windows NT 10.0; Win64; x64; rv:109.0) Gecko/20100101 Firefox/117.0" etag="FbBG2E5Gwq6sKJV1j1Dn" version="21.7.2" type="google">
  <diagram name="Page-1" id="XJoasyORJHsuZKotQ6yW">
    <mxGraphModel grid="0" page="0" gridSize="10" guides="1" tooltips="1" connect="1" arrows="1" fold="1" pageScale="1" pageWidth="850" pageHeight="1100" math="0" shadow="0">
      <root>
        <mxCell id="0" />
        <mxCell id="1" parent="0" />
        <mxCell id="w0umW30da6x2Pr5-Im3T-1" value="&lt;font style=&quot;font-size: 25px;&quot;&gt;Booking&lt;/font&gt;" style="rounded=0;whiteSpace=wrap;html=1;verticalAlign=top;" vertex="1" parent="1">
          <mxGeometry x="-80" y="290" width="790" height="450" as="geometry" />
        </mxCell>
        <mxCell id="w0umW30da6x2Pr5-Im3T-5" value="EmailService" style="rounded=0;whiteSpace=wrap;html=1;" vertex="1" parent="1">
          <mxGeometry x="220" y="640" width="130" height="70" as="geometry" />
        </mxCell>
        <mxCell id="w0umW30da6x2Pr5-Im3T-24" style="edgeStyle=orthogonalEdgeStyle;rounded=0;orthogonalLoop=1;jettySize=auto;html=1;exitX=0.5;exitY=1;exitDx=0;exitDy=0;" edge="1" parent="1" source="w0umW30da6x2Pr5-Im3T-6" target="w0umW30da6x2Pr5-Im3T-5">
          <mxGeometry relative="1" as="geometry" />
        </mxCell>
        <mxCell id="w0umW30da6x2Pr5-Im3T-6" value="BillingService" style="rounded=0;whiteSpace=wrap;html=1;" vertex="1" parent="1">
          <mxGeometry x="225" y="470" width="120" height="60" as="geometry" />
        </mxCell>
        <mxCell id="w0umW30da6x2Pr5-Im3T-26" style="edgeStyle=orthogonalEdgeStyle;rounded=0;orthogonalLoop=1;jettySize=auto;html=1;exitX=0.25;exitY=0;exitDx=0;exitDy=0;entryX=1;entryY=1;entryDx=0;entryDy=0;" edge="1" parent="1" source="w0umW30da6x2Pr5-Im3T-8" target="w0umW30da6x2Pr5-Im3T-13">
          <mxGeometry relative="1" as="geometry">
            <Array as="points">
              <mxPoint x="445" y="730" />
              <mxPoint x="445" y="408" />
            </Array>
          </mxGeometry>
        </mxCell>
        <mxCell id="w0umW30da6x2Pr5-Im3T-8" value="BagageService???" style="rounded=0;whiteSpace=wrap;html=1;" vertex="1" parent="1">
          <mxGeometry x="380" y="730" width="140" height="60" as="geometry" />
        </mxCell>
        <mxCell id="w0umW30da6x2Pr5-Im3T-25" style="edgeStyle=orthogonalEdgeStyle;rounded=0;orthogonalLoop=1;jettySize=auto;html=1;exitX=0;exitY=0.5;exitDx=0;exitDy=0;entryX=1;entryY=0.75;entryDx=0;entryDy=0;" edge="1" parent="1" source="w0umW30da6x2Pr5-Im3T-10" target="w0umW30da6x2Pr5-Im3T-13">
          <mxGeometry relative="1" as="geometry" />
        </mxCell>
        <mxCell id="KiG5hHIOfDI6Cgn-yRzu-3" value="POST&amp;nbsp;" style="edgeLabel;html=1;align=center;verticalAlign=middle;resizable=0;points=[];" connectable="0" vertex="1" parent="w0umW30da6x2Pr5-Im3T-25">
          <mxGeometry x="-0.7971" y="-1" relative="1" as="geometry">
            <mxPoint x="-57" y="-8" as="offset" />
          </mxGeometry>
        </mxCell>
        <mxCell id="w0umW30da6x2Pr5-Im3T-10" value="BoardingPassService?" style="rounded=0;whiteSpace=wrap;html=1;" vertex="1" parent="1">
          <mxGeometry x="600" y="540" width="140" height="60" as="geometry" />
        </mxCell>
        <mxCell id="w0umW30da6x2Pr5-Im3T-16" style="edgeStyle=orthogonalEdgeStyle;rounded=0;orthogonalLoop=1;jettySize=auto;html=1;exitX=1;exitY=0.5;exitDx=0;exitDy=0;entryX=0;entryY=0.5;entryDx=0;entryDy=0;" edge="1" parent="1" source="w0umW30da6x2Pr5-Im3T-11" target="w0umW30da6x2Pr5-Im3T-13">
          <mxGeometry relative="1" as="geometry" />
        </mxCell>
        <mxCell id="w0umW30da6x2Pr5-Im3T-11" value="Flyrejseoversigt" style="rounded=0;whiteSpace=wrap;html=1;" vertex="1" parent="1">
          <mxGeometry x="-330" y="343" width="140" height="60" as="geometry" />
        </mxCell>
        <mxCell id="w0umW30da6x2Pr5-Im3T-18" style="edgeStyle=orthogonalEdgeStyle;rounded=0;orthogonalLoop=1;jettySize=auto;html=1;exitX=0.5;exitY=1;exitDx=0;exitDy=0;" edge="1" parent="1" source="w0umW30da6x2Pr5-Im3T-13" target="w0umW30da6x2Pr5-Im3T-6">
          <mxGeometry relative="1" as="geometry" />
        </mxCell>
        <mxCell id="w0umW30da6x2Pr5-Im3T-21" style="edgeStyle=orthogonalEdgeStyle;rounded=0;orthogonalLoop=1;jettySize=auto;html=1;exitX=0.25;exitY=0;exitDx=0;exitDy=0;" edge="1" parent="1" source="w0umW30da6x2Pr5-Im3T-13" target="w0umW30da6x2Pr5-Im3T-20">
          <mxGeometry relative="1" as="geometry" />
        </mxCell>
        <mxCell id="w0umW30da6x2Pr5-Im3T-13" value="BookingService" style="rounded=0;whiteSpace=wrap;html=1;" vertex="1" parent="1">
          <mxGeometry x="220" y="338" width="130" height="70" as="geometry" />
        </mxCell>
        <mxCell id="w0umW30da6x2Pr5-Im3T-14" value="(WeightAlgorithmService)" style="rounded=0;whiteSpace=wrap;html=1;" vertex="1" parent="1">
          <mxGeometry x="-80" y="600" width="150" height="70" as="geometry" />
        </mxCell>
        <mxCell id="w0umW30da6x2Pr5-Im3T-15" value="(FlightCalculatorService)" style="rounded=0;whiteSpace=wrap;html=1;" vertex="1" parent="1">
          <mxGeometry x="-80" y="670" width="150" height="70" as="geometry" />
        </mxCell>
        <mxCell id="w0umW30da6x2Pr5-Im3T-19" style="edgeStyle=orthogonalEdgeStyle;rounded=0;orthogonalLoop=1;jettySize=auto;html=1;exitX=0;exitY=0.25;exitDx=0;exitDy=0;entryX=1;entryY=0.25;entryDx=0;entryDy=0;" edge="1" parent="1" source="w0umW30da6x2Pr5-Im3T-17" target="w0umW30da6x2Pr5-Im3T-13">
          <mxGeometry relative="1" as="geometry" />
        </mxCell>
        <mxCell id="w0umW30da6x2Pr5-Im3T-22" value="POST, CheckIn nr., BookingID, IsCheckedIn" style="edgeLabel;html=1;align=center;verticalAlign=middle;resizable=0;points=[];" connectable="0" vertex="1" parent="w0umW30da6x2Pr5-Im3T-19">
          <mxGeometry x="0.2208" y="-1" relative="1" as="geometry">
            <mxPoint x="38" y="-7" as="offset" />
          </mxGeometry>
        </mxCell>
        <mxCell id="w0umW30da6x2Pr5-Im3T-17" value="CheckInService" style="rounded=0;whiteSpace=wrap;html=1;" vertex="1" parent="1">
          <mxGeometry x="590" y="341" width="120" height="60" as="geometry" />
        </mxCell>
        <mxCell id="w0umW30da6x2Pr5-Im3T-20" value="" style="strokeWidth=2;html=1;shape=mxgraph.flowchart.database;whiteSpace=wrap;" vertex="1" parent="1">
          <mxGeometry x="220" y="160" width="65" height="60" as="geometry" />
        </mxCell>
        <mxCell id="w0umW30da6x2Pr5-Im3T-31" value="" style="edgeStyle=none;html=1;strokeColor=#808080;endArrow=block;endSize=10;dashed=0;verticalAlign=bottom;strokeWidth=2;rounded=0;exitX=1;exitY=0.5;exitDx=0;exitDy=0;entryX=0;entryY=0.5;entryDx=0;entryDy=0;entryPerimeter=0;" edge="1" parent="1" source="w0umW30da6x2Pr5-Im3T-17" target="c2eeLxNR3pbSf6gZwBhC-3">
          <mxGeometry width="160" relative="1" as="geometry">
            <mxPoint x="715" y="370" as="sourcePoint" />
            <mxPoint x="800" y="370" as="targetPoint" />
          </mxGeometry>
        </mxCell>
        <mxCell id="c2eeLxNR3pbSf6gZwBhC-3" value="" style="shape=mxgraph.signs.transportation.bus_3;html=1;pointerEvents=1;fillColor=#000000;strokeColor=none;verticalLabelPosition=bottom;verticalAlign=top;align=center;" vertex="1" parent="1">
          <mxGeometry x="801" y="354.5" width="99" height="33" as="geometry" />
        </mxCell>
        <mxCell id="KiG5hHIOfDI6Cgn-yRzu-4" value="&lt;b&gt;Sendt BODY:&lt;/b&gt;&lt;br&gt;&lt;p style=&quot;line-height:1.38;margin-top:0pt;margin-bottom:0pt;&quot; dir=&quot;ltr&quot;&gt;&lt;/p&gt;&lt;p style=&quot;line-height:1.38;margin-top:0pt;margin-bottom:0pt;&quot; dir=&quot;ltr&quot;&gt;&lt;/p&gt;&lt;p style=&quot;line-height:1.38;margin-top:0pt;margin-bottom:0pt;&quot; dir=&quot;ltr&quot;&gt;&lt;/p&gt;&lt;p style=&quot;line-height:1.38;margin-top:0pt;margin-bottom:0pt;&quot; dir=&quot;ltr&quot;&gt;&lt;/p&gt;&lt;div&gt;&lt;/div&gt;&lt;span style=&quot;font-variant-numeric: normal; font-variant-east-asian: normal; font-variant-alternates: normal; font-variant-position: normal; vertical-align: baseline;&quot;&gt;Flynr (ID)&lt;/span&gt;&lt;br&gt;&lt;p&gt;&lt;/p&gt;" style="edgeLabel;html=1;align=center;verticalAlign=middle;resizable=0;points=[];" connectable="0" vertex="1" parent="1">
          <mxGeometry x="749.001724137931" y="620" as="geometry">
            <mxPoint x="6" y="6" as="offset" />
          </mxGeometry>
        </mxCell>
        <mxCell id="KiG5hHIOfDI6Cgn-yRzu-6" value="&lt;b&gt;HentetBODY&lt;/b&gt;:&lt;br&gt;&lt;p style=&quot;line-height:1.38;margin-top:0pt;margin-bottom:0pt;&quot; dir=&quot;ltr&quot;&gt;&lt;/p&gt;&lt;p style=&quot;line-height:1.38;margin-top:0pt;margin-bottom:0pt;&quot; dir=&quot;ltr&quot;&gt;&lt;/p&gt;&lt;p style=&quot;line-height:1.38;margin-top:0pt;margin-bottom:0pt;&quot; dir=&quot;ltr&quot;&gt;&lt;/p&gt;&lt;p style=&quot;line-height:1.38;margin-top:0pt;margin-bottom:0pt;&quot; dir=&quot;ltr&quot;&gt;&lt;/p&gt;&lt;div&gt;&lt;/div&gt;&lt;span style=&quot;font-variant-numeric: normal; font-variant-east-asian: normal; font-variant-alternates: normal; font-variant-position: normal; vertical-align: baseline;&quot;&gt;Checkin number (string)&lt;/span&gt;&lt;p&gt;&lt;/p&gt;&lt;span style=&quot;font-variant-numeric: normal; font-variant-east-asian: normal; font-variant-alternates: normal; font-variant-position: normal; vertical-align: baseline;&quot;&gt;Flynr (ID),&lt;/span&gt;&lt;p&gt;&lt;/p&gt;&lt;span style=&quot;font-variant-numeric: normal; font-variant-east-asian: normal; font-variant-alternates: normal; font-variant-position: normal; vertical-align: baseline;&quot;&gt;Navn&lt;/span&gt;&lt;p&gt;&lt;/p&gt;&lt;span style=&quot;font-variant-numeric: normal; font-variant-east-asian: normal; font-variant-alternates: normal; font-variant-position: normal; vertical-align: baseline;&quot;&gt;BrugerID,&amp;nbsp; (string)&lt;/span&gt;&lt;p&gt;&lt;/p&gt;" style="edgeLabel;html=1;align=center;verticalAlign=middle;resizable=0;points=[];" connectable="0" vertex="1" parent="1">
          <mxGeometry x="642.001724137931" y="656" as="geometry">
            <mxPoint x="6" y="6" as="offset" />
          </mxGeometry>
        </mxCell>
        <mxCell id="KiG5hHIOfDI6Cgn-yRzu-9" value="Booking" style="swimlane;fontStyle=0;childLayout=stackLayout;horizontal=1;startSize=26;fillColor=none;horizontalStack=0;resizeParent=1;resizeParentMax=0;resizeLast=0;collapsible=1;marginBottom=0;whiteSpace=wrap;html=1;" vertex="1" parent="1">
          <mxGeometry x="1104" y="83" width="140" height="104" as="geometry" />
        </mxCell>
        <mxCell id="KiG5hHIOfDI6Cgn-yRzu-10" value="ID" style="text;strokeColor=none;fillColor=none;align=left;verticalAlign=top;spacingLeft=4;spacingRight=4;overflow=hidden;rotatable=0;points=[[0,0.5],[1,0.5]];portConstraint=eastwest;whiteSpace=wrap;html=1;" vertex="1" parent="KiG5hHIOfDI6Cgn-yRzu-9">
          <mxGeometry y="26" width="140" height="26" as="geometry" />
        </mxCell>
        <mxCell id="KiG5hHIOfDI6Cgn-yRzu-12" value="FlightID" style="text;strokeColor=none;fillColor=none;align=left;verticalAlign=top;spacingLeft=4;spacingRight=4;overflow=hidden;rotatable=0;points=[[0,0.5],[1,0.5]];portConstraint=eastwest;whiteSpace=wrap;html=1;" vertex="1" parent="KiG5hHIOfDI6Cgn-yRzu-9">
          <mxGeometry y="52" width="140" height="26" as="geometry" />
        </mxCell>
        <mxCell id="KiG5hHIOfDI6Cgn-yRzu-39" value="IsCheckedIn" style="text;strokeColor=none;fillColor=none;align=left;verticalAlign=top;spacingLeft=4;spacingRight=4;overflow=hidden;rotatable=0;points=[[0,0.5],[1,0.5]];portConstraint=eastwest;whiteSpace=wrap;html=1;" vertex="1" parent="KiG5hHIOfDI6Cgn-yRzu-9">
          <mxGeometry y="78" width="140" height="26" as="geometry" />
        </mxCell>
        <mxCell id="KiG5hHIOfDI6Cgn-yRzu-26" value="Bagage" style="swimlane;fontStyle=0;childLayout=stackLayout;horizontal=1;startSize=26;fillColor=none;horizontalStack=0;resizeParent=1;resizeParentMax=0;resizeLast=0;collapsible=1;marginBottom=0;whiteSpace=wrap;html=1;" vertex="1" parent="1">
          <mxGeometry x="860" y="83" width="140" height="104" as="geometry" />
        </mxCell>
        <mxCell id="KiG5hHIOfDI6Cgn-yRzu-27" value="ID" style="text;strokeColor=none;fillColor=none;align=left;verticalAlign=top;spacingLeft=4;spacingRight=4;overflow=hidden;rotatable=0;points=[[0,0.5],[1,0.5]];portConstraint=eastwest;whiteSpace=wrap;html=1;" vertex="1" parent="KiG5hHIOfDI6Cgn-yRzu-26">
          <mxGeometry y="26" width="140" height="26" as="geometry" />
        </mxCell>
        <mxCell id="hlcLb8Q9YG_8XtZtlHrK-2" value="BookingID" style="text;strokeColor=none;fillColor=none;align=left;verticalAlign=top;spacingLeft=4;spacingRight=4;overflow=hidden;rotatable=0;points=[[0,0.5],[1,0.5]];portConstraint=eastwest;whiteSpace=wrap;html=1;" vertex="1" parent="KiG5hHIOfDI6Cgn-yRzu-26">
          <mxGeometry y="52" width="140" height="26" as="geometry" />
        </mxCell>
        <mxCell id="KiG5hHIOfDI6Cgn-yRzu-38" value="Weight" style="text;strokeColor=none;fillColor=none;align=left;verticalAlign=top;spacingLeft=4;spacingRight=4;overflow=hidden;rotatable=0;points=[[0,0.5],[1,0.5]];portConstraint=eastwest;whiteSpace=wrap;html=1;" vertex="1" parent="KiG5hHIOfDI6Cgn-yRzu-26">
          <mxGeometry y="78" width="140" height="26" as="geometry" />
        </mxCell>
        <mxCell id="KiG5hHIOfDI6Cgn-yRzu-30" value="Flight" style="swimlane;fontStyle=0;childLayout=stackLayout;horizontal=1;startSize=26;fillColor=none;horizontalStack=0;resizeParent=1;resizeParentMax=0;resizeLast=0;collapsible=1;marginBottom=0;whiteSpace=wrap;html=1;" vertex="1" parent="1">
          <mxGeometry x="1104" y="-141" width="140" height="130" as="geometry" />
        </mxCell>
        <mxCell id="KiG5hHIOfDI6Cgn-yRzu-31" value="ID" style="text;strokeColor=none;fillColor=none;align=left;verticalAlign=top;spacingLeft=4;spacingRight=4;overflow=hidden;rotatable=0;points=[[0,0.5],[1,0.5]];portConstraint=eastwest;whiteSpace=wrap;html=1;" vertex="1" parent="KiG5hHIOfDI6Cgn-yRzu-30">
          <mxGeometry y="26" width="140" height="26" as="geometry" />
        </mxCell>
        <mxCell id="KiG5hHIOfDI6Cgn-yRzu-33" value="Destination" style="text;strokeColor=none;fillColor=none;align=left;verticalAlign=top;spacingLeft=4;spacingRight=4;overflow=hidden;rotatable=0;points=[[0,0.5],[1,0.5]];portConstraint=eastwest;whiteSpace=wrap;html=1;" vertex="1" parent="KiG5hHIOfDI6Cgn-yRzu-30">
          <mxGeometry y="52" width="140" height="26" as="geometry" />
        </mxCell>
        <mxCell id="KiG5hHIOfDI6Cgn-yRzu-35" value="Source" style="text;strokeColor=none;fillColor=none;align=left;verticalAlign=top;spacingLeft=4;spacingRight=4;overflow=hidden;rotatable=0;points=[[0,0.5],[1,0.5]];portConstraint=eastwest;whiteSpace=wrap;html=1;" vertex="1" parent="KiG5hHIOfDI6Cgn-yRzu-30">
          <mxGeometry y="78" width="140" height="26" as="geometry" />
        </mxCell>
        <mxCell id="KiG5hHIOfDI6Cgn-yRzu-32" value="Availability" style="text;strokeColor=none;fillColor=none;align=left;verticalAlign=top;spacingLeft=4;spacingRight=4;overflow=hidden;rotatable=0;points=[[0,0.5],[1,0.5]];portConstraint=eastwest;whiteSpace=wrap;html=1;" vertex="1" parent="KiG5hHIOfDI6Cgn-yRzu-30">
          <mxGeometry y="104" width="140" height="26" as="geometry" />
        </mxCell>
        <mxCell id="KiG5hHIOfDI6Cgn-yRzu-36" style="edgeStyle=orthogonalEdgeStyle;rounded=0;orthogonalLoop=1;jettySize=auto;html=1;exitX=1;exitY=0.5;exitDx=0;exitDy=0;endArrow=none;endFill=0;" edge="1" parent="1" source="KiG5hHIOfDI6Cgn-yRzu-27" target="KiG5hHIOfDI6Cgn-yRzu-10">
          <mxGeometry relative="1" as="geometry" />
        </mxCell>
        <mxCell id="KiG5hHIOfDI6Cgn-yRzu-37" style="edgeStyle=orthogonalEdgeStyle;rounded=0;orthogonalLoop=1;jettySize=auto;html=1;exitX=0.5;exitY=0;exitDx=0;exitDy=0;entryX=0.496;entryY=1.035;entryDx=0;entryDy=0;entryPerimeter=0;endArrow=none;endFill=0;" edge="1" parent="1" source="KiG5hHIOfDI6Cgn-yRzu-9" target="KiG5hHIOfDI6Cgn-yRzu-32">
          <mxGeometry relative="1" as="geometry" />
        </mxCell>
        <mxCell id="hlcLb8Q9YG_8XtZtlHrK-3" value="Måske &#39;Size&#39;?" style="ellipse;shape=cloud;whiteSpace=wrap;html=1;rotation=0;" vertex="1" parent="1">
          <mxGeometry x="714" y="107" width="120" height="80" as="geometry" />
        </mxCell>
        <mxCell id="hlcLb8Q9YG_8XtZtlHrK-4" value="Bagagen her henfører til &quot;store&quot; bagage i cargoen i flyet (ikk håndbagagen)" style="shape=callout;whiteSpace=wrap;html=1;perimeter=calloutPerimeter;" vertex="1" parent="1">
          <mxGeometry x="870" y="-42" width="129" height="111" as="geometry" />
        </mxCell>
      </root>
    </mxGraphModel>
  </diagram>
</mxfile>
